<svg width="1019" height="526" viewBox="0 0 1019 526" fill="none" xmlns="http://www.w3.org/2000/svg">
<path d="M147.094 434.434C143.772 427.351 147.674 418.104 156.481 413.268C165.249 408.46 178.924 408.062 186.031 412.329C193.139 416.625 193.718 425.558 190.203 432.813C186.688 440.096 179.078 445.729 170.039 446.07C160.962 446.44 150.416 441.518 147.094 434.434Z" fill="url(#paint0_linear_257_3)"/>
<path d="M863.137 428.585C861.631 422.613 869.008 416.85 875.343 414.342C881.64 411.834 886.854 412.64 890.601 414.76C894.31 416.91 896.511 420.433 895.391 426.017C894.271 431.601 889.829 439.246 882.412 439.992C874.996 440.739 864.605 434.558 863.137 428.585Z" fill="url(#paint1_linear_257_3)"/>
<path d="M961.445 499.67C957.891 491.966 958.548 482.53 964.458 479.395C970.329 476.26 981.454 479.425 988.6 484.083C995.746 488.741 998.875 494.893 996.828 501.014C994.819 507.165 987.596 513.257 980.141 513.317C972.647 513.376 964.96 507.404 961.445 499.67Z" fill="url(#paint2_linear_257_3)"/>
<path d="M871.906 23.1598C875.228 30.2793 871.326 39.5719 862.519 44.4326C853.751 49.2647 840.076 49.665 832.969 45.3761C825.861 41.0587 825.282 32.0807 828.797 24.7896C832.312 17.4699 839.922 11.8087 848.961 11.4655C858.038 11.0938 868.584 16.0403 871.906 23.1598Z" fill="url(#paint3_linear_257_3)"/>
<path d="M155.863 112.283C157.369 118.285 149.992 124.077 143.657 126.598C137.36 129.119 132.146 128.309 128.399 126.178C124.69 124.017 122.489 120.476 123.609 114.864C124.729 109.252 129.171 101.569 136.588 100.819C144.004 100.069 154.395 106.281 155.863 112.283Z" fill="url(#paint4_linear_257_3)"/>
<path d="M57.5554 41.2179C61.1091 48.9606 60.4524 58.444 54.5424 61.5951C48.671 64.7462 37.5462 61.5651 30.4 56.8835C23.2539 52.2018 20.1251 46.0196 22.1723 39.8674C24.181 33.6852 31.4044 27.563 38.8595 27.503C46.3533 27.443 54.0402 33.4451 57.5554 41.2179Z" fill="url(#paint5_linear_257_3)"/>
<defs>
<linearGradient id="paint0_linear_257_3" x1="169.111" y1="446.09" x2="169.111" y2="409.377" gradientUnits="userSpaceOnUse">
<stop stop-color="#162C45"/>
<stop offset="1" stop-color="#22446B"/>
</linearGradient>
<linearGradient id="paint1_linear_257_3" x1="879.311" y1="440.054" x2="879.311" y2="412.785" gradientUnits="userSpaceOnUse">
<stop stop-color="#162C45"/>
<stop offset="1" stop-color="#22446B"/>
</linearGradient>
<linearGradient id="paint2_linear_257_3" x1="978.356" y1="513.317" x2="978.356" y2="478.138" gradientUnits="userSpaceOnUse">
<stop stop-color="#162C45"/>
<stop offset="1" stop-color="#22446B"/>
</linearGradient>
<linearGradient id="paint3_linear_257_3" x1="849.889" y1="11.4459" x2="849.889" y2="48.3433" gradientUnits="userSpaceOnUse">
<stop stop-color="#162C45"/>
<stop offset="1" stop-color="#22446B"/>
</linearGradient>
<linearGradient id="paint4_linear_257_3" x1="139.689" y1="100.757" x2="139.689" y2="128.162" gradientUnits="userSpaceOnUse">
<stop stop-color="#162C45"/>
<stop offset="1" stop-color="#22446B"/>
</linearGradient>
<linearGradient id="paint5_linear_257_3" x1="40.644" y1="27.5026" x2="40.644" y2="62.8588" gradientUnits="userSpaceOnUse">
<stop stop-color="#162C45"/>
<stop offset="1" stop-color="#22446B"/>
</linearGradient>
</defs>
</svg>
