<svg width="932" height="488" viewBox="0 0 932 488" fill="none" xmlns="http://www.w3.org/2000/svg">
<path d="M134.464 403.431C131.427 396.853 134.993 388.267 143.044 383.775C151.06 379.311 163.56 378.941 170.057 382.904C176.554 386.893 177.084 395.188 173.871 401.925C170.657 408.689 163.701 413.92 155.438 414.237C147.14 414.58 137.5 410.01 134.464 403.431Z" fill="url(#paint0_linear_257_3)"/>
<path d="M789.021 398C787.644 392.454 794.388 387.102 800.179 384.773C805.935 382.443 810.702 383.192 814.127 385.161C817.517 387.157 819.529 390.429 818.505 395.615C817.481 400.8 813.421 407.899 806.641 408.592C799.861 409.285 790.363 403.545 789.021 398Z" fill="url(#paint1_linear_257_3)"/>
<path d="M878.887 464.012C875.638 456.857 876.239 448.095 881.641 445.183C887.008 442.272 897.178 445.211 903.71 449.537C910.243 453.863 913.103 459.575 911.232 465.259C909.395 470.972 902.792 476.629 895.977 476.684C889.127 476.739 882.1 471.194 878.887 464.012Z" fill="url(#paint2_linear_257_3)"/>
<path d="M797.036 21.5071C800.073 28.1185 796.507 36.7479 788.456 41.2617C780.44 45.749 767.94 46.1207 761.443 42.1379C754.946 38.1286 754.416 29.7913 757.629 23.0206C760.843 16.2233 767.799 10.966 776.062 10.6474C784.36 10.3022 794 14.8957 797.036 21.5071Z" fill="url(#paint3_linear_257_3)"/>
<path d="M142.479 104.27C143.856 109.844 137.112 115.223 131.321 117.564C125.565 119.905 120.798 119.152 117.373 117.173C113.983 115.167 111.971 111.878 112.995 106.667C114.019 101.455 118.079 94.3209 124.859 93.6242C131.639 92.9274 141.137 98.6963 142.479 104.27Z" fill="url(#paint4_linear_257_3)"/>
<path d="M52.6131 38.2764C55.8617 45.4666 55.2615 54.2732 49.8589 57.1995C44.4916 60.1257 34.3221 57.1716 27.7896 52.824C21.2571 48.4765 18.3969 42.7355 20.2684 37.0223C22.1046 31.2813 28.7077 25.5961 35.5227 25.5403C42.373 25.4846 49.3999 31.0584 52.6131 38.2764Z" fill="url(#paint5_linear_257_3)"/>
<defs>
<linearGradient id="paint0_linear_257_3" x1="154.59" y1="414.255" x2="154.59" y2="380.162" gradientUnits="userSpaceOnUse">
<stop stop-color="#162C45"/>
<stop offset="1" stop-color="#22446B"/>
</linearGradient>
<linearGradient id="paint1_linear_257_3" x1="803.806" y1="408.649" x2="803.806" y2="383.327" gradientUnits="userSpaceOnUse">
<stop stop-color="#162C45"/>
<stop offset="1" stop-color="#22446B"/>
</linearGradient>
<linearGradient id="paint2_linear_257_3" x1="894.346" y1="476.684" x2="894.346" y2="444.016" gradientUnits="userSpaceOnUse">
<stop stop-color="#162C45"/>
<stop offset="1" stop-color="#22446B"/>
</linearGradient>
<linearGradient id="paint3_linear_257_3" x1="776.91" y1="10.6292" x2="776.91" y2="44.8933" gradientUnits="userSpaceOnUse">
<stop stop-color="#162C45"/>
<stop offset="1" stop-color="#22446B"/>
</linearGradient>
<linearGradient id="paint4_linear_257_3" x1="127.694" y1="93.5668" x2="127.694" y2="119.016" gradientUnits="userSpaceOnUse">
<stop stop-color="#162C45"/>
<stop offset="1" stop-color="#22446B"/>
</linearGradient>
<linearGradient id="paint5_linear_257_3" x1="37.1539" y1="25.5399" x2="37.1539" y2="58.373" gradientUnits="userSpaceOnUse">
<stop stop-color="#162C45"/>
<stop offset="1" stop-color="#22446B"/>
</linearGradient>
</defs>
</svg>
