<svg width="1319" height="576" viewBox="0 0 1319 576" fill="none" xmlns="http://www.w3.org/2000/svg">
<path d="M190.4 475.772C186.1 468.014 191.15 457.888 202.55 452.592C213.9 447.326 231.6 446.89 240.8 451.564C250 456.268 250.75 466.051 246.2 473.996C241.65 481.972 231.8 488.141 220.1 488.515C208.35 488.92 194.7 483.53 190.4 475.772Z" fill="url(#paint0_linear_257_3)"/>
<path d="M1117.25 469.366C1115.3 462.826 1124.85 456.515 1133.05 453.768C1141.2 451.021 1147.95 451.904 1152.8 454.225C1157.6 456.58 1160.45 460.439 1159 466.554C1157.55 472.669 1151.8 481.041 1142.2 481.859C1132.6 482.676 1119.15 475.907 1117.25 469.366Z" fill="url(#paint1_linear_257_3)"/>
<path d="M1244.5 547.215C1239.9 538.778 1240.75 528.445 1248.4 525.011C1256 521.577 1270.4 525.044 1279.65 530.145C1288.9 535.247 1292.95 541.983 1290.3 548.687C1287.7 555.424 1278.35 562.095 1268.7 562.16C1259 562.226 1249.05 555.685 1244.5 547.215Z" fill="url(#paint2_linear_257_3)"/>
<path d="M1128.6 25.3636C1132.9 33.1605 1127.85 43.3373 1116.45 48.6605C1105.1 53.9524 1087.4 54.3908 1078.2 49.6938C1069 44.9655 1068.25 35.1332 1072.8 27.1484C1077.35 19.1323 1087.2 12.9323 1098.9 12.5565C1110.65 12.1495 1124.3 17.5666 1128.6 25.3636Z" fill="url(#paint3_linear_257_3)"/>
<path d="M201.75 122.967C203.7 129.54 194.15 135.884 185.95 138.644C177.8 141.405 171.05 140.518 166.2 138.184C161.4 135.818 158.55 131.94 160 125.794C161.45 119.648 167.2 111.234 176.8 110.412C186.4 109.591 199.85 116.394 201.75 122.967Z" fill="url(#paint4_linear_257_3)"/>
<path d="M74.5 45.1399C79.1 53.6194 78.25 64.0051 70.6 67.4561C63 70.907 48.6 67.4232 39.35 62.2961C30.1 57.1689 26.05 50.3985 28.7 43.6609C31.3 36.8904 40.65 30.1857 50.3 30.12C60 30.0543 69.95 36.6275 74.5 45.1399Z" fill="url(#paint5_linear_257_3)"/>
<defs>
<linearGradient id="paint0_linear_257_3" x1="218.898" y1="488.537" x2="218.898" y2="448.33" gradientUnits="userSpaceOnUse">
<stop stop-color="#162C45"/>
<stop offset="1" stop-color="#22446B"/>
</linearGradient>
<linearGradient id="paint1_linear_257_3" x1="1138.19" y1="481.926" x2="1138.19" y2="452.063" gradientUnits="userSpaceOnUse">
<stop stop-color="#162C45"/>
<stop offset="1" stop-color="#22446B"/>
</linearGradient>
<linearGradient id="paint2_linear_257_3" x1="1266.39" y1="562.161" x2="1266.39" y2="523.634" gradientUnits="userSpaceOnUse">
<stop stop-color="#162C45"/>
<stop offset="1" stop-color="#22446B"/>
</linearGradient>
<linearGradient id="paint3_linear_257_3" x1="1100.1" y1="12.535" x2="1100.1" y2="52.9433" gradientUnits="userSpaceOnUse">
<stop stop-color="#162C45"/>
<stop offset="1" stop-color="#22446B"/>
</linearGradient>
<linearGradient id="paint4_linear_257_3" x1="180.814" y1="110.345" x2="180.814" y2="140.358" gradientUnits="userSpaceOnUse">
<stop stop-color="#162C45"/>
<stop offset="1" stop-color="#22446B"/>
</linearGradient>
<linearGradient id="paint5_linear_257_3" x1="52.6098" y1="30.1195" x2="52.6098" y2="68.84" gradientUnits="userSpaceOnUse">
<stop stop-color="#162C45"/>
<stop offset="1" stop-color="#22446B"/>
</linearGradient>
</defs>
</svg>
