<svg width="726" height="604" viewBox="0 0 726 604" fill="none" xmlns="http://www.w3.org/2000/svg">
<path d="M707.6 544.5C711.9 556.95 706.85 573.2 695.45 581.7C684.1 590.15 666.4 590.85 657.2 583.35C648 575.8 647.25 560.1 651.8 547.35C656.35 534.55 666.2 524.65 677.9 524.05C689.65 523.4 703.3 532.05 707.6 544.5Z" fill="url(#paint0_linear_309_14)"/>
<path d="M335.75 521.6C337.7 531.6 328.15 541.25 319.95 545.45C311.8 549.65 305.05 548.3 300.2 544.75C295.4 541.15 292.55 535.25 294 525.9C295.45 516.55 301.2 503.75 310.8 502.5C320.4 501.25 333.85 511.6 335.75 521.6Z" fill="url(#paint1_linear_309_14)"/>
<path d="M87.5 528.2C92.1 541.1 91.25 556.9 83.6 562.15C76 567.4 61.6 562.1 52.35 554.3C43.1 546.5 39.05 536.2 41.7 525.95C44.3 515.65 53.65 505.45 63.3 505.35C73 505.25 82.95 515.25 87.5 528.2Z" fill="url(#paint2_linear_309_14)"/>
<path d="M335.75 174.6C337.7 184.6 328.15 194.25 319.95 198.45C311.8 202.65 305.05 201.3 300.2 197.75C295.4 194.15 292.55 188.25 294 178.9C295.45 169.55 301.2 156.75 310.8 155.5C320.4 154.25 333.85 164.6 335.75 174.6Z" fill="url(#paint3_linear_309_14)"/>
<g clip-path="url(#clip0_309_14)">
<path d="M713.019 55.9843C717.319 68.4343 712.269 84.6843 700.869 93.1843C689.519 101.634 671.819 102.334 662.619 94.8343C653.419 87.2843 652.669 71.5843 657.219 58.8343C661.769 46.0343 671.619 36.1343 683.319 35.5343C695.069 34.8843 708.719 43.5343 713.019 55.9843Z" fill="url(#paint4_linear_309_14)"/>
</g>
<path d="M74.5 65.2001C79.1 78.1001 78.25 93.9001 70.6 99.1501C63 104.4 48.6 99.1001 39.35 91.3001C30.1 83.5001 26.05 73.2001 28.7 62.9501C31.3 52.6501 40.65 42.4501 50.3 42.3501C60 42.2501 69.95 52.2501 74.5 65.2001Z" fill="url(#paint5_linear_309_14)"/>
<defs>
<linearGradient id="paint0_linear_309_14" x1="679.102" y1="524.016" x2="679.102" y2="588.539" gradientUnits="userSpaceOnUse">
<stop stop-color="#162C45"/>
<stop offset="1" stop-color="#22446B"/>
</linearGradient>
<linearGradient id="paint1_linear_309_14" x1="314.814" y1="502.397" x2="314.814" y2="548.056" gradientUnits="userSpaceOnUse">
<stop stop-color="#162C45"/>
<stop offset="1" stop-color="#22446B"/>
</linearGradient>
<linearGradient id="paint2_linear_309_14" x1="65.6098" y1="505.349" x2="65.6098" y2="564.255" gradientUnits="userSpaceOnUse">
<stop stop-color="#162C45"/>
<stop offset="1" stop-color="#22446B"/>
</linearGradient>
<linearGradient id="paint3_linear_309_14" x1="314.814" y1="155.397" x2="314.814" y2="201.056" gradientUnits="userSpaceOnUse">
<stop stop-color="#162C45"/>
<stop offset="1" stop-color="#22446B"/>
</linearGradient>
<linearGradient id="paint4_linear_309_14" x1="684.52" y1="35.5" x2="684.52" y2="100.023" gradientUnits="userSpaceOnUse">
<stop stop-color="#162C45"/>
<stop offset="1" stop-color="#22446B"/>
</linearGradient>
<linearGradient id="paint5_linear_309_14" x1="52.6098" y1="42.3494" x2="52.6098" y2="101.256" gradientUnits="userSpaceOnUse">
<stop stop-color="#162C45"/>
<stop offset="1" stop-color="#22446B"/>
</linearGradient>
<clipPath id="clip0_309_14">
<rect width="100" height="100" fill="white" transform="translate(626)"/>
</clipPath>
</defs>
</svg>
