<svg width="969" height="526" viewBox="0 0 969 526" fill="none" xmlns="http://www.w3.org/2000/svg">
<path d="M139.877 434.434C136.718 427.351 140.428 418.104 148.803 413.268C157.141 408.46 170.144 408.062 176.903 412.329C183.662 416.625 184.213 425.558 180.87 432.813C177.528 440.096 170.291 445.729 161.696 446.07C153.064 446.44 143.036 441.518 139.877 434.434Z" fill="url(#paint0_linear_257_3)"/>
<path d="M820.785 428.585C819.352 422.613 826.368 416.85 832.392 414.342C838.38 411.834 843.339 412.64 846.902 414.76C850.428 416.91 852.522 420.433 851.456 426.017C850.391 431.601 846.167 439.246 839.114 439.992C832.062 440.739 822.181 434.558 820.785 428.585Z" fill="url(#paint1_linear_257_3)"/>
<path d="M914.269 499.67C910.889 491.966 911.514 482.53 917.134 479.395C922.717 476.26 933.296 479.425 940.092 484.083C946.887 488.741 949.862 494.893 947.916 501.014C946.006 507.165 939.137 513.257 932.047 513.317C924.921 513.376 917.611 507.404 914.269 499.67Z" fill="url(#paint2_linear_257_3)"/>
<path d="M829.123 23.1598C832.282 30.2793 828.572 39.5719 820.197 44.4326C811.859 49.2647 798.856 49.665 792.097 45.3761C785.338 41.0587 784.787 32.0807 788.13 24.7896C791.472 17.4699 798.709 11.8087 807.304 11.4655C815.936 11.0938 825.964 16.0403 829.123 23.1598Z" fill="url(#paint3_linear_257_3)"/>
<path d="M148.215 112.283C149.648 118.285 142.632 124.077 136.608 126.598C130.62 129.119 125.661 128.309 122.098 126.178C118.572 124.017 116.478 120.476 117.544 114.864C118.609 109.252 122.833 101.569 129.886 100.819C136.938 100.069 146.819 106.281 148.215 112.283Z" fill="url(#paint4_linear_257_3)"/>
<path d="M54.7312 41.2179C58.1106 48.9606 57.4862 58.444 51.8661 61.5951C46.2828 64.7462 35.7039 61.5651 28.9084 56.8835C22.1129 52.2018 19.1376 46.0196 21.0844 39.8674C22.9945 33.6852 29.8634 27.563 36.9528 27.503C44.0788 27.443 51.3886 33.4451 54.7312 41.2179Z" fill="url(#paint5_linear_257_3)"/>
<defs>
<linearGradient id="paint0_linear_257_3" x1="160.813" y1="446.09" x2="160.813" y2="409.377" gradientUnits="userSpaceOnUse">
<stop stop-color="#162C45"/>
<stop offset="1" stop-color="#22446B"/>
</linearGradient>
<linearGradient id="paint1_linear_257_3" x1="836.166" y1="440.054" x2="836.166" y2="412.785" gradientUnits="userSpaceOnUse">
<stop stop-color="#162C45"/>
<stop offset="1" stop-color="#22446B"/>
</linearGradient>
<linearGradient id="paint2_linear_257_3" x1="930.35" y1="513.317" x2="930.35" y2="478.138" gradientUnits="userSpaceOnUse">
<stop stop-color="#162C45"/>
<stop offset="1" stop-color="#22446B"/>
</linearGradient>
<linearGradient id="paint3_linear_257_3" x1="808.187" y1="11.4459" x2="808.187" y2="48.3433" gradientUnits="userSpaceOnUse">
<stop stop-color="#162C45"/>
<stop offset="1" stop-color="#22446B"/>
</linearGradient>
<linearGradient id="paint4_linear_257_3" x1="132.834" y1="100.757" x2="132.834" y2="128.162" gradientUnits="userSpaceOnUse">
<stop stop-color="#162C45"/>
<stop offset="1" stop-color="#22446B"/>
</linearGradient>
<linearGradient id="paint5_linear_257_3" x1="38.6496" y1="27.5026" x2="38.6496" y2="62.8588" gradientUnits="userSpaceOnUse">
<stop stop-color="#162C45"/>
<stop offset="1" stop-color="#22446B"/>
</linearGradient>
</defs>
</svg>
