<svg width="726" height="380" viewBox="0 0 726 380" fill="none" xmlns="http://www.w3.org/2000/svg">
<path d="M707.6 320.5C711.9 332.95 706.85 349.2 695.45 357.7C684.1 366.15 666.4 366.85 657.2 359.35C648 351.8 647.25 336.1 651.8 323.35C656.35 310.55 666.2 300.65 677.9 300.05C689.65 299.4 703.3 308.05 707.6 320.5Z" fill="url(#paint0_linear_313_39)"/>
<path d="M335.75 297.6C337.7 307.6 328.15 317.25 319.95 321.45C311.8 325.65 305.05 324.3 300.2 320.75C295.4 317.15 292.55 311.25 294 301.9C295.45 292.55 301.2 279.75 310.8 278.5C320.4 277.25 333.85 287.6 335.75 297.6Z" fill="url(#paint1_linear_313_39)"/>
<path d="M87.5 304.2C92.1 317.1 91.25 332.9 83.6 338.15C76 343.4 61.6 338.1 52.35 330.3C43.1 322.5 39.05 312.2 41.7 301.95C44.3 291.65 53.65 281.45 63.3 281.35C73 281.25 82.95 291.25 87.5 304.2Z" fill="url(#paint2_linear_313_39)"/>
<path d="M335.75 151.6C337.7 161.6 328.15 171.25 319.95 175.45C311.8 179.65 305.05 178.3 300.2 174.75C295.4 171.15 292.55 165.25 294 155.9C295.45 146.55 301.2 133.75 310.8 132.5C320.4 131.25 333.85 141.6 335.75 151.6Z" fill="url(#paint3_linear_313_39)"/>
<g clip-path="url(#clip0_313_39)">
<path d="M713.019 55.9843C717.319 68.4343 712.269 84.6843 700.869 93.1843C689.519 101.634 671.819 102.334 662.619 94.8343C653.419 87.2843 652.669 71.5843 657.219 58.8343C661.769 46.0343 671.619 36.1343 683.319 35.5343C695.069 34.8843 708.719 43.5343 713.019 55.9843Z" fill="url(#paint4_linear_313_39)"/>
</g>
<path d="M74.5 83.2001C79.1 96.1001 78.25 111.9 70.6 117.15C63 122.4 48.6 117.1 39.35 109.3C30.1 101.5 26.05 91.2001 28.7 80.9501C31.3 70.6501 40.65 60.4501 50.3 60.3501C60 60.2501 69.95 70.2501 74.5 83.2001Z" fill="url(#paint5_linear_313_39)"/>
<defs>
<linearGradient id="paint0_linear_313_39" x1="679.102" y1="300.016" x2="679.102" y2="364.539" gradientUnits="userSpaceOnUse">
<stop stop-color="#162C45"/>
<stop offset="1" stop-color="#22446B"/>
</linearGradient>
<linearGradient id="paint1_linear_313_39" x1="314.814" y1="278.397" x2="314.814" y2="324.056" gradientUnits="userSpaceOnUse">
<stop stop-color="#162C45"/>
<stop offset="1" stop-color="#22446B"/>
</linearGradient>
<linearGradient id="paint2_linear_313_39" x1="65.6098" y1="281.349" x2="65.6098" y2="340.256" gradientUnits="userSpaceOnUse">
<stop stop-color="#162C45"/>
<stop offset="1" stop-color="#22446B"/>
</linearGradient>
<linearGradient id="paint3_linear_313_39" x1="314.814" y1="132.397" x2="314.814" y2="178.056" gradientUnits="userSpaceOnUse">
<stop stop-color="#162C45"/>
<stop offset="1" stop-color="#22446B"/>
</linearGradient>
<linearGradient id="paint4_linear_313_39" x1="684.52" y1="35.5" x2="684.52" y2="100.023" gradientUnits="userSpaceOnUse">
<stop stop-color="#162C45"/>
<stop offset="1" stop-color="#22446B"/>
</linearGradient>
<linearGradient id="paint5_linear_313_39" x1="52.6098" y1="60.3494" x2="52.6098" y2="119.256" gradientUnits="userSpaceOnUse">
<stop stop-color="#162C45"/>
<stop offset="1" stop-color="#22446B"/>
</linearGradient>
<clipPath id="clip0_313_39">
<rect width="100" height="100" fill="white" transform="translate(626)"/>
</clipPath>
</defs>
</svg>
