<svg width="1319" height="876" viewBox="0 0 1319 876" fill="none" xmlns="http://www.w3.org/2000/svg">
<path d="M108.8 685.935C100.2 662.33 110.3 631.521 133.1 615.405C155.8 599.385 191.2 598.057 209.6 612.277C228 626.591 229.5 656.358 220.4 680.531C211.3 704.8 191.6 723.57 168.2 724.707C144.7 725.94 117.4 709.54 108.8 685.935Z" fill="url(#paint0_linear_242_2)"/>
<path d="M1038.5 678.166C1034.6 658.266 1053.7 639.062 1070.1 630.704C1086.4 622.346 1099.9 625.033 1109.6 632.097C1119.2 639.261 1124.9 651.002 1122 669.609C1119.1 688.215 1107.6 713.687 1088.4 716.175C1069.2 718.662 1042.3 698.066 1038.5 678.166Z" fill="url(#paint1_linear_242_2)"/>
<path d="M1170 790.032C1160.8 764.361 1162.5 732.919 1177.8 722.471C1193 712.024 1221.8 722.571 1240.3 738.093C1258.8 753.615 1266.9 774.112 1261.6 794.509C1256.4 815.006 1237.7 835.304 1218.4 835.503C1199 835.702 1179.1 815.802 1170 790.032Z" fill="url(#paint2_linear_242_2)"/>
<path d="M1210.2 77.7C1218.8 101.423 1208.7 132.387 1185.9 148.584C1163.2 164.685 1127.8 166.019 1109.4 151.728C1091 137.342 1089.5 107.426 1098.6 83.1306C1107.7 58.7404 1127.4 39.8761 1150.8 38.7329C1174.3 37.4943 1201.6 53.9767 1210.2 77.7Z" fill="url(#paint3_linear_242_2)"/>
<path d="M280.5 224.2C284.4 244.2 265.3 263.5 248.9 271.9C232.6 280.3 219.1 277.6 209.4 270.5C199.8 263.3 194.1 251.5 197 232.8C199.9 214.1 211.4 188.5 230.6 186C249.8 183.5 276.7 204.2 280.5 224.2Z" fill="url(#paint4_linear_242_2)"/>
<path d="M149 112.4C158.2 138.2 156.5 169.8 141.2 180.3C126 190.8 97.1999 180.2 78.6999 164.6C60.1999 149 52.0999 128.4 57.3999 107.9C62.5999 87.3 81.2999 66.9 100.6 66.7C120 66.5 139.9 86.5 149 112.4Z" fill="url(#paint5_linear_242_2)"/>
<defs>
<linearGradient id="paint0_linear_242_2" x1="165.797" y1="724.772" x2="165.797" y2="602.439" gradientUnits="userSpaceOnUse">
<stop stop-color="#162C45"/>
<stop offset="1" stop-color="#22446B"/>
</linearGradient>
<linearGradient id="paint1_linear_242_2" x1="1080.37" y1="716.38" x2="1080.37" y2="625.518" gradientUnits="userSpaceOnUse">
<stop stop-color="#162C45"/>
<stop offset="1" stop-color="#22446B"/>
</linearGradient>
<linearGradient id="paint2_linear_242_2" x1="1213.78" y1="835.505" x2="1213.78" y2="718.282" gradientUnits="userSpaceOnUse">
<stop stop-color="#162C45"/>
<stop offset="1" stop-color="#22446B"/>
</linearGradient>
<linearGradient id="paint3_linear_242_2" x1="1153.2" y1="38.6675" x2="1153.2" y2="161.615" gradientUnits="userSpaceOnUse">
<stop stop-color="#162C45"/>
<stop offset="1" stop-color="#22446B"/>
</linearGradient>
<linearGradient id="paint4_linear_242_2" x1="238.628" y1="185.794" x2="238.628" y2="277.112" gradientUnits="userSpaceOnUse">
<stop stop-color="#162C45"/>
<stop offset="1" stop-color="#22446B"/>
</linearGradient>
<linearGradient id="paint5_linear_242_2" x1="105.219" y1="66.6985" x2="105.219" y2="184.511" gradientUnits="userSpaceOnUse">
<stop stop-color="#162C45"/>
<stop offset="1" stop-color="#22446B"/>
</linearGradient>
</defs>
</svg>
