<svg width="1169" height="576" viewBox="0 0 1169 576" fill="none" xmlns="http://www.w3.org/2000/svg">
<path d="M168.747 475.772C164.936 468.014 169.412 457.888 179.516 452.592C189.575 447.326 205.262 446.89 213.416 451.564C221.569 456.268 222.234 466.051 218.202 473.996C214.169 481.972 205.439 488.141 195.07 488.515C184.656 488.92 172.558 483.53 168.747 475.772Z" fill="url(#paint0_linear_257_3)"/>
<path d="M990.194 469.366C988.465 462.826 996.929 456.515 1004.2 453.768C1011.42 451.021 1017.4 451.904 1021.7 454.225C1025.95 456.58 1028.48 460.439 1027.2 466.554C1025.91 472.669 1020.81 481.041 1012.31 481.859C1003.8 482.676 991.877 475.907 990.194 469.366Z" fill="url(#paint1_linear_257_3)"/>
<path d="M1102.97 547.215C1098.9 538.778 1099.65 528.445 1106.43 525.011C1113.16 521.577 1125.93 525.044 1134.12 530.145C1142.32 535.247 1145.91 541.983 1143.56 548.687C1141.26 555.424 1132.97 562.095 1124.42 562.16C1115.82 562.226 1107 555.685 1102.97 547.215Z" fill="url(#paint2_linear_257_3)"/>
<path d="M1000.25 25.3636C1004.06 33.1605 999.588 43.3373 989.484 48.6605C979.425 53.9524 963.738 54.3908 955.584 49.6938C947.431 44.9655 946.766 35.1332 950.798 27.1484C954.831 19.1323 963.561 12.9323 973.93 12.5565C984.344 12.1495 996.442 17.5666 1000.25 25.3636Z" fill="url(#paint3_linear_257_3)"/>
<path d="M178.806 122.967C180.535 129.54 172.071 135.884 164.803 138.644C157.58 141.405 151.598 140.518 147.299 138.184C143.045 135.818 140.519 131.94 141.804 125.794C143.09 119.648 148.186 111.234 156.694 110.412C165.202 109.591 177.123 116.394 178.806 122.967Z" fill="url(#paint4_linear_257_3)"/>
<path d="M66.0277 45.1399C70.1046 53.6194 69.3512 64.0051 62.5712 67.4561C55.8355 70.907 43.0731 67.4232 34.875 62.2961C26.677 57.1689 23.0875 50.3985 25.4362 43.6609C27.7405 36.8904 36.0272 30.1857 44.5798 30.12C53.1766 30.0543 61.9951 36.6275 66.0277 45.1399Z" fill="url(#paint5_linear_257_3)"/>
<defs>
<linearGradient id="paint0_linear_257_3" x1="194.005" y1="488.537" x2="194.005" y2="448.33" gradientUnits="userSpaceOnUse">
<stop stop-color="#162C45"/>
<stop offset="1" stop-color="#22446B"/>
</linearGradient>
<linearGradient id="paint1_linear_257_3" x1="1008.75" y1="481.926" x2="1008.75" y2="452.063" gradientUnits="userSpaceOnUse">
<stop stop-color="#162C45"/>
<stop offset="1" stop-color="#22446B"/>
</linearGradient>
<linearGradient id="paint2_linear_257_3" x1="1122.37" y1="562.161" x2="1122.37" y2="523.634" gradientUnits="userSpaceOnUse">
<stop stop-color="#162C45"/>
<stop offset="1" stop-color="#22446B"/>
</linearGradient>
<linearGradient id="paint3_linear_257_3" x1="974.995" y1="12.535" x2="974.995" y2="52.9433" gradientUnits="userSpaceOnUse">
<stop stop-color="#162C45"/>
<stop offset="1" stop-color="#22446B"/>
</linearGradient>
<linearGradient id="paint4_linear_257_3" x1="160.251" y1="110.345" x2="160.251" y2="140.358" gradientUnits="userSpaceOnUse">
<stop stop-color="#162C45"/>
<stop offset="1" stop-color="#22446B"/>
</linearGradient>
<linearGradient id="paint5_linear_257_3" x1="46.6269" y1="30.1195" x2="46.6269" y2="68.84" gradientUnits="userSpaceOnUse">
<stop stop-color="#162C45"/>
<stop offset="1" stop-color="#22446B"/>
</linearGradient>
</defs>
</svg>
