<svg width="1319" height="876" viewBox="0 0 1319 876" fill="none" xmlns="http://www.w3.org/2000/svg">
<path d="M190.4 723.8C186.1 711.998 191.15 696.593 202.55 688.535C213.9 680.525 231.6 679.861 240.8 686.971C250 694.128 250.75 709.012 246.2 721.098C241.65 733.233 231.8 742.617 220.1 743.186C208.35 743.802 194.7 735.602 190.4 723.8Z" fill="url(#paint0_linear_257_3)"/>
<path d="M1117.25 714.055C1115.3 704.105 1124.85 694.503 1133.05 690.324C1141.2 686.145 1147.95 687.489 1152.8 691.021C1157.6 694.603 1160.45 700.473 1159 709.777C1157.55 719.08 1151.8 731.816 1142.2 733.06C1132.6 734.303 1119.15 724.005 1117.25 714.055Z" fill="url(#paint1_linear_257_3)"/>
<path d="M1244.5 832.488C1239.9 819.653 1240.75 803.932 1248.4 798.708C1256 793.484 1270.4 798.758 1279.65 806.519C1288.9 814.28 1292.95 824.528 1290.3 834.727C1287.7 844.975 1278.35 855.124 1268.7 855.224C1259 855.323 1249.05 845.373 1244.5 832.488Z" fill="url(#paint2_linear_257_3)"/>
<path d="M1128.6 38.5861C1132.9 50.4477 1127.85 65.9298 1116.45 74.0281C1105.1 82.0787 1087.4 82.7456 1078.2 75.6001C1069 68.4069 1068.25 53.4488 1072.8 41.3014C1077.35 29.1063 1087.2 19.6742 1098.9 19.1025C1110.65 18.4832 1124.3 26.7244 1128.6 38.5861Z" fill="url(#paint3_linear_257_3)"/>
<path d="M201.75 187.072C203.7 197.072 194.15 206.722 185.95 210.922C177.8 215.122 171.05 213.772 166.2 210.222C161.4 206.622 158.55 200.722 160 191.372C161.45 182.022 167.2 169.222 176.8 167.972C186.4 166.722 199.85 177.072 201.75 187.072Z" fill="url(#paint4_linear_257_3)"/>
<path d="M74.5 68.672C79.1 81.572 78.25 97.372 70.6 102.622C63 107.872 48.6 102.572 39.35 94.772C30.1 86.972 26.05 76.672 28.7 66.422C31.3 56.122 40.65 45.922 50.3 45.822C60 45.722 69.95 55.722 74.5 68.672Z" fill="url(#paint5_linear_257_3)"/>
<defs>
<linearGradient id="paint0_linear_257_3" x1="218.898" y1="743.219" x2="218.898" y2="682.052" gradientUnits="userSpaceOnUse">
<stop stop-color="#162C45"/>
<stop offset="1" stop-color="#22446B"/>
</linearGradient>
<linearGradient id="paint1_linear_257_3" x1="1138.19" y1="733.162" x2="1138.19" y2="687.731" gradientUnits="userSpaceOnUse">
<stop stop-color="#162C45"/>
<stop offset="1" stop-color="#22446B"/>
</linearGradient>
<linearGradient id="paint2_linear_257_3" x1="1266.39" y1="855.225" x2="1266.39" y2="796.613" gradientUnits="userSpaceOnUse">
<stop stop-color="#162C45"/>
<stop offset="1" stop-color="#22446B"/>
</linearGradient>
<linearGradient id="paint3_linear_257_3" x1="1100.1" y1="19.0698" x2="1100.1" y2="80.5436" gradientUnits="userSpaceOnUse">
<stop stop-color="#162C45"/>
<stop offset="1" stop-color="#22446B"/>
</linearGradient>
<linearGradient id="paint4_linear_257_3" x1="180.814" y1="167.869" x2="180.814" y2="213.528" gradientUnits="userSpaceOnUse">
<stop stop-color="#162C45"/>
<stop offset="1" stop-color="#22446B"/>
</linearGradient>
<linearGradient id="paint5_linear_257_3" x1="52.6098" y1="45.8213" x2="52.6098" y2="104.727" gradientUnits="userSpaceOnUse">
<stop stop-color="#162C45"/>
<stop offset="1" stop-color="#22446B"/>
</linearGradient>
</defs>
</svg>
