<svg width="1019" height="576" viewBox="0 0 1019 576" fill="none" xmlns="http://www.w3.org/2000/svg">
<path d="M147.094 475.772C143.772 468.014 147.674 457.888 156.481 452.592C165.249 447.326 178.924 446.89 186.031 451.564C193.139 456.268 193.718 466.051 190.203 473.996C186.688 481.972 179.078 488.141 170.039 488.515C160.962 488.92 150.416 483.53 147.094 475.772Z" fill="url(#paint0_linear_257_3)"/>
<path d="M863.137 469.366C861.631 462.826 869.008 456.515 875.343 453.768C881.64 451.021 886.854 451.904 890.601 454.225C894.31 456.58 896.511 460.439 895.391 466.554C894.271 472.669 889.829 481.041 882.412 481.859C874.996 482.676 864.605 475.907 863.137 469.366Z" fill="url(#paint1_linear_257_3)"/>
<path d="M961.445 547.215C957.891 538.778 958.548 528.445 964.458 525.011C970.329 521.577 981.454 525.044 988.6 530.145C995.746 535.247 998.875 541.983 996.828 548.687C994.819 555.424 987.596 562.095 980.141 562.16C972.647 562.226 964.96 555.685 961.445 547.215Z" fill="url(#paint2_linear_257_3)"/>
<path d="M871.906 25.3636C875.228 33.1605 871.326 43.3373 862.519 48.6605C853.751 53.9524 840.076 54.3908 832.969 49.6938C825.861 44.9655 825.282 35.1332 828.797 27.1484C832.312 19.1323 839.922 12.9323 848.961 12.5565C858.038 12.1495 868.584 17.5666 871.906 25.3636Z" fill="url(#paint3_linear_257_3)"/>
<path d="M155.863 122.967C157.369 129.54 149.992 135.884 143.657 138.644C137.36 141.405 132.146 140.518 128.399 138.184C124.69 135.818 122.489 131.94 123.609 125.794C124.729 119.648 129.171 111.234 136.588 110.412C144.004 109.591 154.395 116.394 155.863 122.967Z" fill="url(#paint4_linear_257_3)"/>
<path d="M57.5554 45.1399C61.1091 53.6194 60.4524 64.0051 54.5424 67.4561C48.671 70.907 37.5462 67.4232 30.4 62.2961C23.2539 57.1689 20.1251 50.3985 22.1723 43.6609C24.181 36.8904 31.4044 30.1857 38.8595 30.12C46.3533 30.0543 54.0402 36.6275 57.5554 45.1399Z" fill="url(#paint5_linear_257_3)"/>
<defs>
<linearGradient id="paint0_linear_257_3" x1="169.111" y1="488.537" x2="169.111" y2="448.33" gradientUnits="userSpaceOnUse">
<stop stop-color="#162C45"/>
<stop offset="1" stop-color="#22446B"/>
</linearGradient>
<linearGradient id="paint1_linear_257_3" x1="879.311" y1="481.926" x2="879.311" y2="452.063" gradientUnits="userSpaceOnUse">
<stop stop-color="#162C45"/>
<stop offset="1" stop-color="#22446B"/>
</linearGradient>
<linearGradient id="paint2_linear_257_3" x1="978.356" y1="562.161" x2="978.356" y2="523.634" gradientUnits="userSpaceOnUse">
<stop stop-color="#162C45"/>
<stop offset="1" stop-color="#22446B"/>
</linearGradient>
<linearGradient id="paint3_linear_257_3" x1="849.889" y1="12.535" x2="849.889" y2="52.9433" gradientUnits="userSpaceOnUse">
<stop stop-color="#162C45"/>
<stop offset="1" stop-color="#22446B"/>
</linearGradient>
<linearGradient id="paint4_linear_257_3" x1="139.689" y1="110.345" x2="139.689" y2="140.358" gradientUnits="userSpaceOnUse">
<stop stop-color="#162C45"/>
<stop offset="1" stop-color="#22446B"/>
</linearGradient>
<linearGradient id="paint5_linear_257_3" x1="40.644" y1="30.1195" x2="40.644" y2="68.84" gradientUnits="userSpaceOnUse">
<stop stop-color="#162C45"/>
<stop offset="1" stop-color="#22446B"/>
</linearGradient>
</defs>
</svg>
